<svg width="32" height="32" viewBox="0 0 32 32" fill="none" xmlns="http://www.w3.org/2000/svg">
<path d="M31.4826 20.0513C31.8203 18.7574 32 17.3997 32 16C32 13.9585 31.6177 12.0063 30.9207 10.2111L21.132 19.9998H31.2C31.2975 19.9998 31.3931 20.0176 31.4826 20.0513Z" fill="#2B4F71"/>
<path d="M30.9927 21.5998C28.7228 27.6746 22.8665 32 16 32C7.16344 32 0 24.8366 0 16C0 7.16344 7.16344 0 16 0C19.3112 0 22.3876 1.00586 24.9401 2.7287L13.269 14.3998C13.1198 14.5478 13.0015 14.724 12.921 14.9182C12.8405 15.1123 12.7993 15.3206 12.8 15.5308V19.9998C12.8 20.4241 12.9686 20.8311 13.2686 21.1311C13.5687 21.4312 13.9757 21.5998 14.4 21.5998H30.9927Z" fill="#2B4F71"/>
<path d="M26.2325 3.69925L24.332 5.59976L28.8 10.0688L30.2167 8.65207C29.229 6.74498 27.8689 5.06194 26.2325 3.69925Z" fill="#2B4F71"/>
<path d="M14.4 19.9998H18.869L27.669 11.1998L23.2 6.73076L14.4 15.5308V19.9998Z" fill="#2B4F71"/>
</svg>
